# xmcd
#
# Track frame offsets:
#	150
#	12594
#	24939
#	39515
#	53844
#	63843
#	79753
#	93323
#	109339
#	122842
#	138672
#	153187
#	164482
#	178654
#	194340
#	206680
#	216179
#	228062
#
# Disc length: 3185 seconds
#
# Revision: 1
# Processed by: cddbd v1.5.2PL0 Copyright (c) Steve Scherf et al.
# Submitted via: audiograbber 1.83.01
#
DISCID=f30c6f12
DTITLE=Verschiedene Interpreten - Shine On Ruby Mountain
DYEAR=2007
DGENRE=Country
TTITLE0=Dolly Parton - Two Little Orphans
TTITLE1=Johnny Paycheck - Take This Job And Shove It
TTITLE2=Sandy Posey - Put Your Hand In The Hand
TTITLE3=Jeanne Pruett - Temporarily Yours
TTITLE4=Tex Ritter - Boll Weevil
TTITLE5=BJ Thomas - Another Somebody Done Somebody Wrong Song
TTITLE6=Kenny Rogers - Shine On Ruby Mountain
TTITLE7=TG Sheppard - Party Time
TTITLE8=Billie Jo Spears - One More Chance
TTITLE9=Doug Stone - I Thought It Was You
TTITLE10=Mickey Gilley - Rocky Top
TTITLE11=Porter Wagoner - Eat, Drink And Be Merry
TTITLE12=T Graham Brown - Today I Started Loving You Again
TTITLE13=Doug Stone - Those Lips Don´t Know How To Say Goodbye
TTITLE14=Johnny Paycheck - Song And Dance Man
TTITLE15=Mickey Gilley - I´m Gonna Put My LoveIn The Want Ads
TTITLE16=Juice Newton - Stuck In The Middle
TTITLE17=Waylon Jennings - Big Mamou
EXTD=
EXTT0=
EXTT1=
EXTT2=
EXTT3=
EXTT4=
EXTT5=
EXTT6=
EXTT7=
EXTT8=
EXTT9=
EXTT10=
EXTT11=
EXTT12=
EXTT13=
EXTT14=
EXTT15=
EXTT16=
EXTT17=
PLAYORDER=
